<?xml version="1.0" standalone="no"?>
<!DOCTYPE svg PUBLIC "-//W3C//DTD SVG 20010904//EN"
 "http://www.w3.org/TR/2001/REC-SVG-20010904/DTD/svg10.dtd">
<svg version="1.0" xmlns="http://www.w3.org/2000/svg"
 width="260.000000pt" height="260.000000pt" viewBox="0 0 260.000000 260.000000"
 preserveAspectRatio="xMidYMid meet">
<metadata>
Created by potrace 1.11, written by Peter Selinger 2001-2013
</metadata>
<g transform="translate(0.000000,260.000000) scale(0.100000,-0.100000)"
fill="#000000" stroke="none">
<path d="M1047 2540 c-74 -22 -137 -108 -137 -186 1 -67 33 -113 185 -269
l146 -149 -189 -186 c-852 -834 -1021 -1004 -1036 -1041 -53 -132 43 -269 187
-269 69 0 114 32 294 211 93 91 173 168 179 172 7 4 75 -55 165 -144 85 -83
254 -250 377 -371 232 -229 271 -258 347 -258 70 0 113 31 290 205 94 92 291
287 439 432 150 148 277 281 287 302 27 55 20 140 -15 186 -16 20 -121 127
-234 238 -114 111 -412 408 -664 659 -374 374 -464 459 -495 467 -44 13 -86
13 -126 1z m874 -1665 c-108 -106 -232 -229 -277 -272 l-81 -79 -299 294 -299
294 278 273 278 272 298 -294 299 -294 -197 -194z"/>
</g>
</svg>
