<?xml version="1.0" encoding="utf-8"?>
<!-- Generator: Adobe Illustrator 15.1.0, SVG Export Plug-In  -->
<!DOCTYPE svg PUBLIC "-//W3C//DTD SVG 1.1//EN" "http://www.w3.org/Graphics/SVG/1.1/DTD/svg11.dtd" [
	<!ENTITY ns_flows "http://ns.adobe.com/Flows/1.0/">
]>
<svg version="1.1"
	 xmlns="http://www.w3.org/2000/svg" xmlns:xlink="http://www.w3.org/1999/xlink" xmlns:a="http://ns.adobe.com/AdobeSVGViewerExtensions/3.0/"
	 x="0px" y="0px" width="911px" height="331px" viewBox="-66.906 -50.682 911 331" enable-background="new -66.906 -50.682 911 331"
	 xml:space="preserve">
<defs>
</defs>
<g>
	<g>
		<path fill-rule="evenodd" clip-rule="evenodd" d="M335.568,134.297h-0.219l-13.406-54.068h-16.154l-13.627,53.412h-0.219
			l-12.416-53.412h-17.254l20.77,78.463h17.475l13.074-53.402h0.221l13.293,53.402h17.146l21.098-78.463h-16.92L335.568,134.297z
			 M417.986,106.772c-1.541-2.016-3.646-3.586-6.318-4.723c-2.676-1.139-6.1-1.705-10.273-1.705c-2.934,0-5.936,0.754-9.016,2.25
			c-3.072,1.504-5.602,3.902-7.582,7.201h-0.326V80.229h-15.607v78.463h15.607v-29.777c0-5.785,0.947-9.943,2.854-12.475
			c1.906-2.529,4.982-3.787,9.234-3.787c3.732,0,6.334,1.15,7.799,3.459s2.201,5.813,2.201,10.494v32.086h15.602v-34.939
			c0-3.518-0.309-6.721-0.93-9.615C420.602,111.243,419.523,108.788,417.986,106.772z M482.266,146.059v-29.563
			c0-3.441-0.766-6.209-2.309-8.295c-1.537-2.088-3.516-3.721-5.93-4.893c-2.418-1.172-5.098-1.961-8.023-2.363
			c-2.93-0.396-5.824-0.602-8.68-0.602c-3.148,0-6.285,0.313-9.395,0.932c-3.119,0.621-5.918,1.666-8.41,3.131
			c-2.49,1.469-4.541,3.408-6.148,5.822c-1.615,2.424-2.531,5.461-2.752,9.129h15.604c0.293-3.082,1.324-5.279,3.078-6.598
			c1.758-1.318,4.172-1.98,7.254-1.98c1.391,0,2.688,0.094,3.9,0.279c1.207,0.184,2.271,0.547,3.188,1.094
			c0.916,0.555,1.646,1.322,2.197,2.309c0.547,0.994,0.824,2.33,0.824,4.012c0.072,1.611-0.406,2.842-1.428,3.684
			c-1.029,0.844-2.416,1.484-4.178,1.918c-1.758,0.445-3.773,0.777-6.043,0.99c-2.273,0.223-4.58,0.518-6.922,0.885
			c-2.348,0.367-4.672,0.861-6.977,1.482c-2.309,0.621-4.367,1.559-6.15,2.801c-1.799,1.252-3.268,2.912-4.4,5.002
			c-1.137,2.088-1.705,4.742-1.705,7.961c0,2.938,0.494,5.465,1.488,7.582c0.984,2.131,2.357,3.889,4.115,5.277
			c1.762,1.398,3.809,2.42,6.156,3.078c2.34,0.66,4.869,0.988,7.582,0.988c3.516,0,6.961-0.51,10.324-1.531
			c3.371-1.035,6.309-2.828,8.795-5.389c0.072,0.949,0.201,1.885,0.385,2.803c0.184,0.912,0.422,1.814,0.715,2.688h15.824
			c-0.73-1.166-1.246-2.93-1.537-5.27C482.414,151.079,482.266,148.625,482.266,146.059z M466.664,136.713
			c0,0.879-0.09,2.057-0.277,3.521c-0.18,1.465-0.676,2.906-1.48,4.336c-0.807,1.43-2.059,2.66-3.736,3.68
			c-1.686,1.027-4.066,1.547-7.146,1.547c-1.242,0-2.451-0.117-3.623-0.334c-1.174-0.217-2.197-0.604-3.08-1.154
			c-0.875-0.551-1.574-1.297-2.086-2.25c-0.512-0.955-0.77-2.127-0.77-3.516c0-1.465,0.258-2.676,0.77-3.629
			c0.512-0.947,1.191-1.734,2.035-2.359c0.84-0.627,1.83-1.117,2.965-1.488c1.137-0.369,2.287-0.656,3.461-0.879
			c1.242-0.217,2.494-0.402,3.734-0.547c1.25-0.141,2.439-0.332,3.574-0.549c1.137-0.221,2.195-0.494,3.188-0.826
			c0.988-0.328,1.813-0.781,2.473-1.371V136.713z M511.387,84.846h-15.605v17.033h-9.445v10.441h9.445v33.512
			c0,2.859,0.48,5.168,1.43,6.926c0.955,1.758,2.254,3.121,3.898,4.066c1.65,0.953,3.555,1.598,5.717,1.926
			c2.158,0.324,4.455,0.492,6.867,0.492c1.545,0,3.115-0.041,4.729-0.109c1.609-0.074,3.074-0.219,4.395-0.441v-12.088
			c-0.734,0.15-1.504,0.264-2.309,0.334c-0.805,0.074-1.648,0.109-2.527,0.109c-2.637,0-4.395-0.443-5.277-1.322
			c-0.873-0.879-1.316-2.637-1.316-5.273v-28.131h11.43v-10.441h-11.43V84.846z M575.891,133.807
			c-1.025-1.793-2.383-3.299-4.066-4.51c-1.684-1.207-3.613-2.176-5.77-2.914c-2.164-0.727-4.379-1.348-6.648-1.863
			c-2.199-0.512-4.357-0.99-6.48-1.43c-2.125-0.439-4.016-0.934-5.664-1.482c-1.646-0.551-2.98-1.266-4.008-2.145
			s-1.535-2.016-1.535-3.408c0-1.168,0.287-2.102,0.873-2.803c0.588-0.691,1.303-1.225,2.146-1.594
			c0.844-0.363,1.77-0.6,2.799-0.709c1.025-0.111,1.98-0.17,2.857-0.17c2.785,0,5.203,0.537,7.258,1.594
			c2.047,1.066,3.186,3.096,3.398,6.1h14.84c-0.293-3.516-1.189-6.428-2.695-8.736c-1.496-2.307-3.387-4.154-5.654-5.549
			c-2.271-1.389-4.854-2.379-7.752-2.969c-2.895-0.586-5.877-0.875-8.949-0.875c-3.08,0-6.086,0.273-9.01,0.826
			c-2.939,0.545-5.576,1.5-7.912,2.854c-2.352,1.355-4.23,3.205-5.664,5.549c-1.43,2.346-2.145,5.35-2.145,9.012
			c0,2.496,0.516,4.6,1.543,6.318c1.018,1.723,2.379,3.15,4.059,4.289c1.688,1.133,3.613,2.051,5.773,2.746
			c2.16,0.699,4.379,1.301,6.645,1.816c5.574,1.168,9.914,2.34,13.027,3.512c3.113,1.17,4.668,2.934,4.668,5.277
			c0,1.389-0.328,2.537-0.986,3.457s-1.486,1.648-2.473,2.199c-0.994,0.551-2.092,0.953-3.295,1.205
			c-1.211,0.26-2.367,0.393-3.467,0.393c-1.535,0-3.021-0.191-4.443-0.551c-1.434-0.369-2.695-0.938-3.795-1.707
			s-2.002-1.756-2.695-2.969c-0.691-1.207-1.045-2.648-1.045-4.336h-14.834c0.15,3.809,1.008,6.979,2.588,9.504
			c1.566,2.527,3.578,4.559,6.039,6.1c2.453,1.537,5.26,2.637,8.412,3.295c3.143,0.66,6.369,0.988,9.662,0.988
			c3.223,0,6.393-0.311,9.51-0.93c3.111-0.625,5.877-1.707,8.295-3.246c2.422-1.537,4.375-3.57,5.883-6.098
			c1.496-2.527,2.246-5.66,2.246-9.396C577.426,137.813,576.916,135.6,575.891,133.807z M606.879,80.229l-29.67,78.463h17.365
			l6.148-17.469h29.344l5.93,17.469h17.918l-29.34-78.463H606.879z M605.23,128.368l10.219-28.797h0.221l9.891,28.797H605.23z
			 M707.863,109.573c-2.121-2.783-4.795-5.016-8.02-6.703c-3.227-1.686-7.07-2.525-11.535-2.525c-3.521,0-6.742,0.697-9.672,2.086
			c-2.938,1.391-5.348,3.627-7.25,6.703h-0.223v-7.254h-14.84v76.705h15.613v-26.92h0.211c1.904,2.781,4.344,4.887,7.313,6.316
			c2.961,1.43,6.205,2.141,9.723,2.141c4.18,0,7.824-0.809,10.934-2.418c3.115-1.607,5.717-3.773,7.803-6.482
			c2.092-2.709,3.643-5.824,4.676-9.338c1.02-3.52,1.535-7.186,1.535-10.988c0-4.031-0.516-7.895-1.535-11.596
			C711.563,115.602,709.992,112.36,707.863,109.573z M697.871,137.157c-0.445,2.199-1.199,4.117-2.258,5.766
			c-1.063,1.648-2.457,2.992-4.182,4.016c-1.717,1.02-3.861,1.539-6.424,1.539c-2.494,0-4.609-0.52-6.371-1.539
			c-1.76-1.023-3.168-2.367-4.232-4.016c-1.061-1.648-1.828-3.566-2.309-5.766c-0.475-2.199-0.709-4.434-0.709-6.699
			c0-2.348,0.215-4.619,0.652-6.816c0.445-2.197,1.193-4.143,2.258-5.824c1.057-1.688,2.451-3.063,4.176-4.125
			c1.721-1.059,3.859-1.588,6.43-1.588c2.484,0,4.598,0.529,6.316,1.588c1.719,1.063,3.133,2.461,4.232,4.178
			c1.096,1.723,1.881,3.682,2.357,5.883c0.48,2.197,0.713,4.436,0.713,6.705C698.521,132.723,698.309,134.958,697.871,137.157z
			 M774.787,119.299c-1.025-3.697-2.604-6.939-4.725-9.727c-2.129-2.783-4.797-5.016-8.02-6.703
			c-3.227-1.686-7.074-2.525-11.543-2.525c-3.516,0-6.738,0.697-9.668,2.086c-2.934,1.391-5.35,3.627-7.254,6.703h-0.215v-7.254
			h-14.838v76.705h15.6v-26.92h0.223c1.906,2.781,4.346,4.887,7.309,6.316c2.967,1.43,6.211,2.141,9.729,2.141
			c4.172,0,7.816-0.809,10.934-2.418c3.107-1.607,5.713-3.773,7.799-6.482c2.09-2.709,3.645-5.824,4.67-9.338
			c1.025-3.52,1.537-7.186,1.537-10.988C776.324,126.864,775.813,123,774.787,119.299z M760.063,137.157
			c-0.438,2.199-1.189,4.117-2.25,5.766c-1.066,1.648-2.457,2.992-4.18,4.016c-1.719,1.02-3.863,1.539-6.426,1.539
			c-2.492,0-4.617-0.52-6.375-1.539c-1.762-1.023-3.168-2.367-4.234-4.016c-1.055-1.648-1.83-3.566-2.309-5.766
			c-0.473-2.199-0.711-4.434-0.711-6.699c0-2.348,0.227-4.619,0.662-6.816c0.439-2.197,1.189-4.143,2.25-5.824
			c1.064-1.688,2.459-3.063,4.178-4.125c1.717-1.059,3.861-1.588,6.428-1.588c2.49,0,4.596,0.529,6.316,1.588
			c1.725,1.063,3.131,2.461,4.23,4.178c1.107,1.723,1.889,3.682,2.367,5.883c0.48,2.197,0.713,4.436,0.713,6.705
			C760.723,132.723,760.5,134.958,760.063,137.157z"/>
	</g>
</g>
<g>
	<g>
		<path fill-rule="evenodd" clip-rule="evenodd" d="M116,0C54.219,0,4.137,50.08,4.137,111.861c0,21.132,5.865,40.896,16.051,57.757
			L0,229.632l61.932-19.83c16.025,8.863,34.455,13.914,54.068,13.914c61.777,0,111.859-50.078,111.859-111.855
			C227.859,50.08,177.777,0,116,0z M116,205.902c-19.104,0-36.891-5.73-51.742-15.553l-36.141,11.574l11.746-34.926
			c-11.258-15.504-17.91-34.555-17.91-55.138c0-51.857,42.189-94.045,94.047-94.045c51.855,0,94.045,42.188,94.045,94.045
			C210.045,163.714,167.855,205.902,116,205.902z"/>
	</g>
</g>
<path fill-rule="evenodd" clip-rule="evenodd" d="M89.764,65.592c-1.812-4.367-3.2-4.515-5.999-4.648
	c-0.96-0.046-2.001-0.09-3.14-0.09c-3.606,0-7.345,1.062-9.598,3.367c-2.742,2.805-9.598,9.375-9.598,22.865
	c0,13.492,9.826,26.529,11.195,28.359c1.373,1.828,19.164,29.919,46.844,41.388c21.605,8.949,28.02,8.152,32.949,7.074
	c7.172-1.566,16.178-6.848,18.463-13.248c2.285-6.404,2.285-11.893,1.6-13.033c-0.686-1.145-2.514-1.828-5.256-3.203
	c-2.742-1.371-16.225-8.004-18.738-8.917c-2.514-0.914-4.838-0.635-6.771,2.039c-2.668,3.693-5.234,7.488-7.359,9.738
	c-1.668,1.766-4.352,2.012-6.66,1.031c-3.035-1.293-11.578-4.27-22.053-13.609c-8.15-7.266-13.654-16.242-15.254-18.988
	c-1.6-2.742-0.141-4.379,1.092-5.871c1.406-1.703,2.703-2.926,4.074-4.525c1.371-1.602,2.137-2.455,3.051-4.287
	c0.914-1.828,0.299-3.715-0.387-5.088C97.531,84.572,92.042,71.084,89.764,65.592z"/>
</svg>
