<svg width="173" height="31" viewBox="0 0 173 31" fill="none" xmlns="http://www.w3.org/2000/svg">
<path fill-rule="evenodd" clip-rule="evenodd" d="M169.287 21.0358C169.392 19.0927 170.872 17.6673 172.909 17.5455C173.205 19.3537 171.315 21.175 169.287 21.0358Z" fill="white"/>
<path fill-rule="evenodd" clip-rule="evenodd" d="M167.857 20.8647C165.986 20.7038 164.637 18.9319 164.854 16.9174C166.656 16.8758 168.182 18.8805 167.857 20.8647Z" fill="white"/>
<path fill-rule="evenodd" clip-rule="evenodd" d="M168.859 10.9942C166.991 11.8911 164.807 11.0906 164.053 9.3001C165.911 8.5532 167.854 9.21768 168.859 10.9942Z" fill="white"/>
<path fill-rule="evenodd" clip-rule="evenodd" d="M159.969 26.9769C158.592 25.5706 158.69 23.6112 160.216 22.0264C161.621 23.2771 161.497 25.7653 159.969 26.9769Z" fill="white"/>
<path fill-rule="evenodd" clip-rule="evenodd" d="M170.1 10.3162C169.043 8.6396 169.487 6.54356 171.081 5.4386C172.274 6.98603 171.863 9.1574 170.1 10.3162Z" fill="white"/>
<path fill-rule="evenodd" clip-rule="evenodd" d="M166.164 27.5293C164.663 29.1518 162.482 29.3191 161.036 27.9739C162.289 26.5357 164.344 26.3381 166.164 27.5293Z" fill="white"/>
<path fill-rule="evenodd" clip-rule="evenodd" d="M161.563 5.79121C163.379 4.81431 165.342 5.20073 166.573 6.77807C165.108 8.01686 162.72 7.54625 161.563 5.79121Z" fill="white"/>
<path fill-rule="evenodd" clip-rule="evenodd" d="M164.056 24.2711C162.326 23.0629 161.934 21.0121 163.055 19.3456C164.703 20.438 165.148 22.5192 164.056 24.2711Z" fill="white"/>
<path fill-rule="evenodd" clip-rule="evenodd" d="M170.089 23.2357C169.395 25.0005 167.24 25.7973 165.376 24.9783C165.97 23.2765 168.11 22.485 170.089 23.2357Z" fill="white"/>
<path fill-rule="evenodd" clip-rule="evenodd" d="M164.547 3.36119C162.686 3.64524 161.03 2.09515 160.978 0.0192724C162.762 -0.198086 164.534 1.46124 164.547 3.36119Z" fill="white"/>
<path fill-rule="evenodd" clip-rule="evenodd" d="M164.821 12.8745C166.886 12.7613 168.422 13.9662 168.797 15.9129C167.041 16.4442 165.303 15.1374 164.821 12.8745Z" fill="white"/>
<path fill-rule="evenodd" clip-rule="evenodd" d="M168.088 0.991333C169.396 2.7353 169.212 4.84862 167.706 5.99147C166.453 4.51294 166.599 2.30745 168.088 0.991333Z" fill="white"/>
<mask id="mask0" mask-type="alpha" maskUnits="userSpaceOnUse" x="170" y="11" width="3" height="5">
<path fill-rule="evenodd" clip-rule="evenodd" d="M170.127 11.5599H173V15.796H170.127V11.5599Z" fill="white"/>
</mask>
<g mask="url(#mask0)">
<path fill-rule="evenodd" clip-rule="evenodd" d="M172.951 11.5599C173.258 13.7638 172.094 15.5346 170.231 15.796C169.766 13.9643 170.902 12.1521 172.951 11.5599Z" fill="white"/>
</g>
<path fill-rule="evenodd" clip-rule="evenodd" d="M3.71326 21.0358C3.60757 19.0927 2.12838 17.6673 0.0908365 17.5455C-0.2054 19.3537 1.6848 21.175 3.71326 21.0358Z" fill="white"/>
<path fill-rule="evenodd" clip-rule="evenodd" d="M5.14306 20.8647C7.01442 20.7038 8.36267 18.9319 8.14641 16.9174C6.34351 16.8758 4.81846 18.8805 5.14306 20.8647Z" fill="white"/>
<path fill-rule="evenodd" clip-rule="evenodd" d="M4.14106 10.9942C6.00866 11.8911 8.19266 11.0905 8.94666 9.30004C7.08903 8.55314 5.14632 9.21762 4.14106 10.9942Z" fill="white"/>
<path fill-rule="evenodd" clip-rule="evenodd" d="M13.0309 26.9769C14.4079 25.5706 14.3102 23.6112 12.7842 22.0264C11.3788 23.2771 11.5027 25.7653 13.0309 26.9769Z" fill="white"/>
<path fill-rule="evenodd" clip-rule="evenodd" d="M2.89953 10.3162C3.95686 8.6396 3.51283 6.54356 1.91865 5.4386C0.725505 6.98603 1.13696 9.1574 2.89953 10.3162Z" fill="white"/>
<path fill-rule="evenodd" clip-rule="evenodd" d="M6.83589 27.5293C8.33657 29.1518 10.5179 29.3191 11.9639 27.9739C10.7107 26.5357 8.65607 26.3381 6.83589 27.5293Z" fill="white"/>
<path fill-rule="evenodd" clip-rule="evenodd" d="M11.4369 5.79121C9.62069 4.81431 7.65826 5.20073 6.42701 6.77807C7.8918 8.01686 10.2801 7.54625 11.4369 5.79121Z" fill="white"/>
<path fill-rule="evenodd" clip-rule="evenodd" d="M8.94354 24.271C10.674 23.0628 11.0657 21.012 9.94525 19.3456C8.29722 20.4379 7.85187 22.5191 8.94354 24.271Z" fill="white"/>
<path fill-rule="evenodd" clip-rule="evenodd" d="M2.91094 23.2357C3.60534 25.0005 5.75987 25.7973 7.62415 24.9783C7.0299 23.2765 4.88977 22.485 2.91094 23.2357Z" fill="white"/>
<path fill-rule="evenodd" clip-rule="evenodd" d="M8.45303 3.36119C10.3144 3.64524 11.97 2.09515 12.0216 0.0192724C10.2378 -0.198086 8.46588 1.46124 8.45303 3.36119Z" fill="white"/>
<path fill-rule="evenodd" clip-rule="evenodd" d="M8.17859 12.8745C6.11424 12.7612 4.5781 13.9661 4.20321 15.9128C5.95914 16.4442 7.69712 15.1373 8.17859 12.8745Z" fill="white"/>
<path fill-rule="evenodd" clip-rule="evenodd" d="M4.91247 0.991333C3.60367 2.7353 3.78823 4.84862 5.29445 5.99147C6.5472 4.51294 6.40141 2.30745 4.91247 0.991333Z" fill="white"/>
<mask id="mask1" mask-type="alpha" maskUnits="userSpaceOnUse" x="0" y="11" width="3" height="5">
<path fill-rule="evenodd" clip-rule="evenodd" d="M2.87256 11.5599H1.33514e-05V15.796H2.87256V11.5599Z" fill="white"/>
</mask>
<g mask="url(#mask1)">
<path fill-rule="evenodd" clip-rule="evenodd" d="M0.0487804 11.5599C-0.257649 13.7638 0.906471 15.5346 2.7692 15.796C3.23383 13.9643 2.09784 12.1521 0.0487804 11.5599Z" fill="white"/>
</g>
<path d="M32.1226 19H34.1514L30.394 8.43115H28.27L24.52 19H26.4316L27.3398 16.2974H31.229L32.1226 19ZM29.2295 10.4453H29.354L30.7896 14.8032H27.7793L29.2295 10.4453ZM41.3426 10.8555C40.2439 10.8555 39.3138 11.4048 38.8523 12.313H38.7278V10.9873H36.9773V21.666H38.7937V17.7842H38.9183C39.3284 18.6338 40.2146 19.1318 41.3646 19.1318C43.386 19.1318 44.6458 17.5498 44.6458 14.9937C44.6458 12.4229 43.3714 10.8555 41.3426 10.8555ZM40.7713 17.5864C39.5335 17.5864 38.7645 16.5977 38.7571 14.9937C38.7645 13.397 39.5408 12.4009 40.7786 12.4009C42.0237 12.4009 42.7781 13.375 42.7781 14.9937C42.7781 16.6123 42.0311 17.5864 40.7713 17.5864ZM52.0348 10.8555C50.9361 10.8555 50.006 11.4048 49.5445 12.313H49.42V10.9873H47.6695V21.666H49.4859V17.7842H49.6104C50.0206 18.6338 50.9068 19.1318 52.0567 19.1318C54.0782 19.1318 55.338 17.5498 55.338 14.9937C55.338 12.4229 54.0636 10.8555 52.0348 10.8555ZM51.4635 17.5864C50.2257 17.5864 49.4566 16.5977 49.4493 14.9937C49.4566 13.397 50.233 12.4009 51.4708 12.4009C52.7159 12.4009 53.4703 13.375 53.4703 14.9937C53.4703 16.6123 52.7232 17.5864 51.4635 17.5864ZM67.0178 19.1611C69.4128 19.1611 70.8703 17.5938 70.8703 14.9937C70.8703 12.4009 69.4055 10.8262 67.0178 10.8262C64.6374 10.8262 63.1652 12.4082 63.1652 14.9937C63.1652 17.5938 64.6154 19.1611 67.0178 19.1611ZM67.0178 17.6377C65.7507 17.6377 65.0256 16.6709 65.0256 14.9937C65.0256 13.3237 65.7507 12.3496 67.0178 12.3496C68.2775 12.3496 69.0026 13.3237 69.0026 14.9937C69.0026 16.6709 68.2849 17.6377 67.0178 17.6377ZM74.4873 19H76.2964V12.4888H78.0176V11.0386H76.2744V10.3135C76.2744 9.55908 76.6113 9.18555 77.4683 9.18555C77.7246 9.18555 77.9443 9.2002 78.0908 9.22217V7.88916C77.7979 7.83789 77.4683 7.80859 77.0801 7.80859C75.3003 7.80859 74.4873 8.59961 74.4873 10.1963V11.0386H73.1763V12.4888H74.4873V19ZM86.753 9.02441V11.0386H85.4859V12.4888H86.753V16.8613C86.753 18.4141 87.4855 19.0366 89.3238 19.0366C89.6754 19.0366 90.0123 19 90.276 18.9487V17.5278C90.0563 17.5498 89.9171 17.5645 89.6607 17.5645C88.899 17.5645 88.5621 17.2129 88.5621 16.4219V12.4888H90.276V11.0386H88.5621V9.02441H86.753ZM93.3656 19H95.182V14.3491C95.182 13.1992 95.8485 12.4229 97.0424 12.4229C98.0971 12.4229 98.6537 13.0454 98.6537 14.2612V19H100.47V13.8291C100.47 11.9248 99.4301 10.8408 97.7162 10.8408C96.5224 10.8408 95.6654 11.3828 95.2846 12.2837H95.1527V7.88916H93.3656V19ZM107.185 12.269C108.277 12.269 108.994 13.0308 109.031 14.2173H105.259C105.34 13.0454 106.101 12.269 107.185 12.269ZM109.046 16.7954C108.782 17.3887 108.159 17.7183 107.258 17.7183C106.065 17.7183 105.296 16.8833 105.252 15.5503V15.4551H110.847V14.8691C110.847 12.3423 109.478 10.8262 107.193 10.8262C104.871 10.8262 103.428 12.4448 103.428 15.0229C103.428 17.6011 104.849 19.1611 107.207 19.1611C109.097 19.1611 110.437 18.2529 110.767 16.7954H109.046ZM121.971 19.1318C123.084 19.1318 124.007 18.6118 124.461 17.7329H124.585V19H126.343V7.88916H124.527V12.2617H124.402C123.977 11.3828 123.069 10.8555 121.971 10.8555C119.949 10.8555 118.675 12.4521 118.675 14.9863C118.675 17.5352 119.942 19.1318 121.971 19.1318ZM122.534 12.4009C123.78 12.4009 124.549 13.397 124.549 14.9937C124.549 16.605 123.787 17.5864 122.534 17.5864C121.289 17.5864 120.535 16.6123 120.535 14.9937C120.535 13.3823 121.297 12.4009 122.534 12.4009ZM132.575 17.7036C131.769 17.7036 131.191 17.3008 131.191 16.627C131.191 15.9751 131.667 15.6089 132.685 15.543L134.494 15.4258V16.063C134.494 16.9932 133.673 17.7036 132.575 17.7036ZM132.04 19.1318C133.088 19.1318 133.966 18.6777 134.413 17.9014H134.538V19H136.288V13.5288C136.288 11.8296 135.131 10.8262 133.073 10.8262C131.169 10.8262 129.843 11.7271 129.696 13.1406H131.41C131.579 12.5986 132.15 12.3057 132.985 12.3057C133.966 12.3057 134.494 12.7451 134.494 13.5288V14.2026L132.428 14.3271C130.48 14.4443 129.389 15.2793 129.389 16.7295C129.389 18.1943 130.495 19.1318 132.04 19.1318ZM140.308 21.9077C142.102 21.9077 142.959 21.2485 143.641 19.2563L146.534 10.9873H144.615L142.747 17.2422H142.622L140.747 10.9873H138.755L141.619 19.0366L141.524 19.3882C141.289 20.1279 140.857 20.4209 140.088 20.4209C139.964 20.4209 139.693 20.4136 139.59 20.3916V21.8784C139.707 21.9004 140.198 21.9077 140.308 21.9077Z" fill="white"/>
</svg>
