<svg width="256" height="31" viewBox="0 0 256 31" fill="none" xmlns="http://www.w3.org/2000/svg">
<path fill-rule="evenodd" clip-rule="evenodd" d="M252.287 21.0358C252.392 19.0927 253.871 17.6673 255.909 17.5455C256.205 19.3537 254.315 21.175 252.287 21.0358Z" fill="white"/>
<path fill-rule="evenodd" clip-rule="evenodd" d="M250.857 20.8647C248.986 20.7038 247.637 18.9319 247.854 16.9174C249.656 16.8758 251.182 18.8805 250.857 20.8647Z" fill="white"/>
<path fill-rule="evenodd" clip-rule="evenodd" d="M251.859 10.9942C249.991 11.8911 247.807 11.0906 247.053 9.3001C248.911 8.5532 250.854 9.21768 251.859 10.9942Z" fill="white"/>
<path fill-rule="evenodd" clip-rule="evenodd" d="M242.969 26.9769C241.592 25.5706 241.69 23.6112 243.216 22.0264C244.621 23.2771 244.497 25.7653 242.969 26.9769Z" fill="white"/>
<path fill-rule="evenodd" clip-rule="evenodd" d="M253.1 10.3162C252.043 8.6396 252.487 6.54356 254.081 5.4386C255.274 6.98603 254.863 9.1574 253.1 10.3162Z" fill="white"/>
<path fill-rule="evenodd" clip-rule="evenodd" d="M249.164 27.5293C247.663 29.1518 245.482 29.3191 244.036 27.9739C245.289 26.5357 247.344 26.3381 249.164 27.5293Z" fill="white"/>
<path fill-rule="evenodd" clip-rule="evenodd" d="M244.563 5.79121C246.379 4.81431 248.342 5.20073 249.573 6.77807C248.108 8.01686 245.72 7.54625 244.563 5.79121Z" fill="white"/>
<path fill-rule="evenodd" clip-rule="evenodd" d="M247.057 24.2711C245.326 23.0629 244.934 21.0121 246.055 19.3456C247.703 20.438 248.148 22.5192 247.057 24.2711Z" fill="white"/>
<path fill-rule="evenodd" clip-rule="evenodd" d="M253.089 23.2357C252.395 25.0005 250.24 25.7973 248.376 24.9783C248.97 23.2765 251.11 22.485 253.089 23.2357Z" fill="white"/>
<path fill-rule="evenodd" clip-rule="evenodd" d="M247.547 3.36119C245.686 3.64524 244.03 2.09515 243.979 0.0192724C245.762 -0.198086 247.534 1.46124 247.547 3.36119Z" fill="white"/>
<path fill-rule="evenodd" clip-rule="evenodd" d="M247.821 12.8745C249.886 12.7613 251.422 13.9662 251.797 15.9129C250.041 16.4442 248.303 15.1374 247.821 12.8745Z" fill="white"/>
<path fill-rule="evenodd" clip-rule="evenodd" d="M251.088 0.991333C252.396 2.7353 252.212 4.84862 250.706 5.99147C249.453 4.51294 249.599 2.30745 251.088 0.991333Z" fill="white"/>
<mask id="mask0" mask-type="alpha" maskUnits="userSpaceOnUse" x="253" y="11" width="3" height="5">
<path fill-rule="evenodd" clip-rule="evenodd" d="M253.127 11.5599H256V15.796H253.127V11.5599Z" fill="white"/>
</mask>
<g mask="url(#mask0)">
<path fill-rule="evenodd" clip-rule="evenodd" d="M255.951 11.5599C256.258 13.7638 255.094 15.5346 253.231 15.796C252.766 13.9643 253.902 12.1521 255.951 11.5599Z" fill="white"/>
</g>
<path fill-rule="evenodd" clip-rule="evenodd" d="M3.71338 21.0358C3.60769 19.0927 2.1285 17.6673 0.0909586 17.5455C-0.205278 19.3537 1.68492 21.175 3.71338 21.0358Z" fill="white"/>
<path fill-rule="evenodd" clip-rule="evenodd" d="M5.14306 20.8647C7.01442 20.7038 8.36267 18.9319 8.14641 16.9174C6.34351 16.8758 4.81846 18.8805 5.14306 20.8647Z" fill="white"/>
<path fill-rule="evenodd" clip-rule="evenodd" d="M4.14094 10.9942C6.00854 11.8911 8.19254 11.0905 8.94653 9.30004C7.0889 8.55314 5.14619 9.21762 4.14094 10.9942Z" fill="white"/>
<path fill-rule="evenodd" clip-rule="evenodd" d="M13.0309 26.9769C14.4079 25.5706 14.3102 23.6112 12.7842 22.0264C11.3788 23.2771 11.5027 25.7653 13.0309 26.9769Z" fill="white"/>
<path fill-rule="evenodd" clip-rule="evenodd" d="M2.89953 10.3162C3.95686 8.6396 3.51283 6.54356 1.91865 5.4386C0.725505 6.98603 1.13696 9.1574 2.89953 10.3162Z" fill="white"/>
<path fill-rule="evenodd" clip-rule="evenodd" d="M6.83589 27.5293C8.33657 29.1518 10.5179 29.3191 11.9639 27.9739C10.7107 26.5357 8.65607 26.3381 6.83589 27.5293Z" fill="white"/>
<path fill-rule="evenodd" clip-rule="evenodd" d="M11.437 5.79121C9.62082 4.81431 7.65839 5.20073 6.42713 6.77807C7.89192 8.01686 10.2802 7.54625 11.437 5.79121Z" fill="white"/>
<path fill-rule="evenodd" clip-rule="evenodd" d="M8.94342 24.271C10.6739 23.0628 11.0656 21.012 9.94513 19.3456C8.2971 20.4379 7.85175 22.5191 8.94342 24.271Z" fill="white"/>
<path fill-rule="evenodd" clip-rule="evenodd" d="M2.91107 23.2357C3.60546 25.0005 5.75999 25.7973 7.62427 24.9783C7.03002 23.2765 4.88989 22.485 2.91107 23.2357Z" fill="white"/>
<path fill-rule="evenodd" clip-rule="evenodd" d="M8.45291 3.36119C10.3143 3.64524 11.9699 2.09515 12.0215 0.0192724C10.2376 -0.198086 8.46576 1.46124 8.45291 3.36119Z" fill="white"/>
<path fill-rule="evenodd" clip-rule="evenodd" d="M8.17871 12.8745C6.11436 12.7612 4.57823 13.9661 4.20333 15.9128C5.95926 16.4442 7.69724 15.1373 8.17871 12.8745Z" fill="white"/>
<path fill-rule="evenodd" clip-rule="evenodd" d="M4.91247 0.991333C3.60367 2.7353 3.78823 4.84862 5.29445 5.99147C6.5472 4.51294 6.40141 2.30745 4.91247 0.991333Z" fill="white"/>
<mask id="mask1" mask-type="alpha" maskUnits="userSpaceOnUse" x="0" y="11" width="3" height="5">
<path fill-rule="evenodd" clip-rule="evenodd" d="M2.87256 11.5599H1.33514e-05V15.796H2.87256V11.5599Z" fill="white"/>
</mask>
<g mask="url(#mask1)">
<path fill-rule="evenodd" clip-rule="evenodd" d="M0.0487804 11.5599C-0.257649 13.7638 0.906471 15.5346 2.7692 15.796C3.23383 13.9643 2.09784 12.1521 0.0487804 11.5599Z" fill="white"/>
</g>
<path d="M28.8486 19H30.2622L30.8335 16.1655H32.6646L32.9282 14.7446H31.1118L31.5659 12.5547H33.3457L33.6094 11.1484H31.8442L32.4009 8.43115H30.9873L30.4233 11.1484H28.3506L28.8926 8.43115H27.4937L26.9297 11.1484H25.1938L24.9229 12.5547H26.6514L26.2119 14.7446H24.52L24.2563 16.1655H25.9263L25.355 19H26.7612L27.3398 16.1655H29.4199L28.8486 19ZM27.5303 14.8472L28.0137 12.4668H30.2402L29.7422 14.8472H27.5303ZM38.6546 19H40.5442V8.43115H38.6619L35.9007 10.3647V12.1812L38.5301 10.3354H38.6546V19ZM48.629 19.2637C51.1559 19.2637 52.6573 17.2129 52.6573 13.7192C52.6573 10.2109 51.1339 8.16748 48.629 8.16748C46.1168 8.16748 44.5934 10.2109 44.5934 13.7046C44.5934 17.2129 46.0948 19.2637 48.629 19.2637ZM48.629 17.6963C47.2887 17.6963 46.505 16.3267 46.505 13.7046C46.505 11.1045 47.3033 9.74219 48.629 9.74219C49.9547 9.74219 50.7457 11.0972 50.7457 13.7046C50.7457 16.3267 49.9693 17.6963 48.629 17.6963ZM61.1291 19H62.9455V14.3711C62.9455 13.2505 63.7658 12.5181 64.945 12.5181C65.2526 12.5181 65.736 12.5693 65.8752 12.6206V10.936C65.7067 10.8848 65.3845 10.8555 65.1208 10.8555C64.0881 10.8555 63.2238 11.4414 63.0041 12.2324H62.8796V10.9873H61.1291V19ZM71.2061 17.7036C70.4004 17.7036 69.8218 17.3008 69.8218 16.627C69.8218 15.9751 70.2979 15.6089 71.3159 15.543L73.125 15.4258V16.063C73.125 16.9932 72.3047 17.7036 71.2061 17.7036ZM70.6714 19.1318C71.7188 19.1318 72.5977 18.6777 73.0444 17.9014H73.1689V19H74.9194V13.5288C74.9194 11.8296 73.7622 10.8262 71.7041 10.8262C69.7998 10.8262 68.4741 11.7271 68.3276 13.1406H70.0415C70.21 12.5986 70.7812 12.3057 71.6162 12.3057C72.5977 12.3057 73.125 12.7451 73.125 13.5288V14.2026L71.0596 14.3271C69.1113 14.4443 68.02 15.2793 68.02 16.7295C68.02 18.1943 69.126 19.1318 70.6714 19.1318ZM78.3094 19H80.1258V14.3345C80.1258 13.1553 80.8069 12.4082 81.8909 12.4082C82.9969 12.4082 83.5096 13.0234 83.5096 14.2466V19H85.326V13.8145C85.326 11.9028 84.3519 10.8262 82.5647 10.8262C81.3709 10.8262 80.5652 11.3755 80.1844 12.269H80.0599V10.9873H78.3094V19ZM90.6935 14.2539H90.5689V7.88916H88.7525V19H90.5689V16.2095L91.2135 15.5649L93.7843 19H95.9815L92.5685 14.4224L95.7618 10.9873H93.6524L90.6935 14.2539ZM103.801 19H105.611V10.9873H103.801V19ZM104.702 9.66162C105.303 9.66162 105.786 9.17822 105.786 8.57031C105.786 7.9624 105.303 7.47168 104.702 7.47168C104.109 7.47168 103.618 7.9624 103.618 8.57031C103.618 9.17822 104.109 9.66162 104.702 9.66162ZM109.066 19H110.883V14.3345C110.883 13.1553 111.564 12.4082 112.648 12.4082C113.754 12.4082 114.267 13.0234 114.267 14.2466V19H116.083V13.8145C116.083 11.9028 115.109 10.8262 113.322 10.8262C112.128 10.8262 111.322 11.3755 110.941 12.269H110.817V10.9873H109.066V19ZM126.715 19V14.7153H131.147V13.1406H126.715V10.0645H131.564V8.43115H124.826V19H126.715ZM138.125 19.1611C140.52 19.1611 141.978 17.5938 141.978 14.9937C141.978 12.4009 140.513 10.8262 138.125 10.8262C135.745 10.8262 134.273 12.4082 134.273 14.9937C134.273 17.5938 135.723 19.1611 138.125 19.1611ZM138.125 17.6377C136.858 17.6377 136.133 16.6709 136.133 14.9937C136.133 13.3237 136.858 12.3496 138.125 12.3496C139.385 12.3496 140.11 13.3237 140.11 14.9937C140.11 16.6709 139.392 17.6377 138.125 17.6377ZM148.466 19.1611C150.861 19.1611 152.319 17.5938 152.319 14.9937C152.319 12.4009 150.854 10.8262 148.466 10.8262C146.086 10.8262 144.613 12.4082 144.613 14.9937C144.613 17.5938 146.064 19.1611 148.466 19.1611ZM148.466 17.6377C147.199 17.6377 146.474 16.6709 146.474 14.9937C146.474 13.3237 147.199 12.3496 148.466 12.3496C149.726 12.3496 150.451 13.3237 150.451 14.9937C150.451 16.6709 149.733 17.6377 148.466 17.6377ZM158.25 19.1318C159.363 19.1318 160.286 18.6118 160.74 17.7329H160.865V19H162.623V7.88916H160.806V12.2617H160.682C160.257 11.3828 159.349 10.8555 158.25 10.8555C156.229 10.8555 154.954 12.4521 154.954 14.9863C154.954 17.5352 156.221 19.1318 158.25 19.1318ZM158.814 12.4009C160.059 12.4009 160.828 13.397 160.828 14.9937C160.828 16.605 160.066 17.5864 158.814 17.5864C157.569 17.5864 156.814 16.6123 156.814 14.9937C156.814 13.3823 157.576 12.4009 158.814 12.4009ZM178.865 19H180.989L179.078 16.9712C179.649 16.1509 179.964 15.0083 179.964 13.6021V13.1187H178.375V13.5142C178.375 14.5542 178.235 15.2573 177.957 15.7773L175.709 13.397C177.239 12.584 177.906 11.7344 177.906 10.6504C177.906 9.22949 176.712 8.2334 175.042 8.2334C173.379 8.2334 172.149 9.26611 172.149 10.6724C172.149 11.4414 172.501 12.1079 173.467 13.1113C173.387 13.1479 173.087 13.3237 173.021 13.353C171.644 14.0928 171.006 14.9937 171.006 16.2168C171.006 18.0112 172.464 19.1978 174.661 19.1978C175.95 19.1978 177.166 18.7803 177.994 18.0698L178.865 19ZM174.039 14.3052C174.127 14.2539 174.288 14.1733 174.368 14.144L176.998 16.9639C176.522 17.4619 175.679 17.7769 174.844 17.7769C173.599 17.7769 172.757 17.0884 172.757 16.0703C172.757 15.3599 173.182 14.7593 174.039 14.3052ZM174.815 12.4741C174.053 11.7344 173.782 11.2876 173.782 10.7676C173.782 10.0571 174.31 9.55176 175.049 9.55176C175.804 9.55176 176.324 10.0425 176.324 10.7676C176.324 11.4341 175.899 11.9248 174.815 12.4741ZM188.89 8.43115V19H192.852C196.016 19 197.825 17.0591 197.825 13.668C197.825 10.3501 195.994 8.43115 192.852 8.43115H188.89ZM190.779 10.0645H192.603C194.676 10.0645 195.899 11.3901 195.899 13.6973C195.899 16.0557 194.705 17.3667 192.603 17.3667H190.779V10.0645ZM201.003 19H202.819V14.3711C202.819 13.2505 203.64 12.5181 204.819 12.5181C205.126 12.5181 205.61 12.5693 205.749 12.6206V10.936C205.581 10.8848 205.258 10.8555 204.995 10.8555C203.962 10.8555 203.098 11.4414 202.878 12.2324H202.753V10.9873H201.003V19ZM208.465 19H210.274V10.9873H208.465V19ZM209.366 9.66162C209.967 9.66162 210.45 9.17822 210.45 8.57031C210.45 7.9624 209.967 7.47168 209.366 7.47168C208.773 7.47168 208.282 7.9624 208.282 8.57031C208.282 9.17822 208.773 9.66162 209.366 9.66162ZM213.73 19H215.546V14.3345C215.546 13.1553 216.228 12.4082 217.312 12.4082C218.418 12.4082 218.93 13.0234 218.93 14.2466V19H220.747V13.8145C220.747 11.9028 219.773 10.8262 217.985 10.8262C216.792 10.8262 215.986 11.3755 215.605 12.269H215.481V10.9873H213.73V19ZM226.114 14.2539H225.99V7.88916H224.173V19H225.99V16.2095L226.634 15.5649L229.205 19H231.402L227.989 14.4224L231.183 10.9873H229.073L226.114 14.2539Z" fill="white"/>
</svg>
