<svg width="26" height="25" viewBox="0 0 26 25" fill="none" xmlns="http://www.w3.org/2000/svg">
<path fill-rule="evenodd" clip-rule="evenodd" d="M9.71401 0.548845C10.5074 -0.202734 11.7702 -0.179524 12.5345 0.600687L16.6285 4.77981L25.4157 13.4207C26.1947 14.1867 26.1947 15.4287 25.4157 16.1947L17.0455 24.4255C16.2665 25.1915 15.0035 25.1915 14.2245 24.4255L6.83459 17.1586L3.40528 20.5326C2.62628 21.2987 1.36326 21.2987 0.584254 20.5326C-0.194751 19.7666 -0.194751 18.5246 0.584254 17.7586L12.4099 6.12816L9.66129 3.32239C8.89698 2.54218 8.92058 1.30042 9.71401 0.548845ZM15.2048 8.92788L9.65562 14.3846L15.635 20.2644L21.1842 14.8077L15.2048 8.92788Z" fill="white"/>
</svg>
