<svg width="93" height="16" viewBox="0 0 93 16" fill="none" xmlns="http://www.w3.org/2000/svg">
<mask id="mask0" mask-type="alpha" maskUnits="userSpaceOnUse" x="76" y="0" width="17" height="16">
<path fill-rule="evenodd" clip-rule="evenodd" d="M80.9627 9.7715L79.0168 16L84.0155 12.0226L89.255 15.7485L89.2374 15.6957L89.1328 15.3814L89.4577 15.6044L87.3384 9.7044L92.0762 6.55687L86.1734 6.48605L84.0155 0L82.0047 6.43603L76 6.36398L80.9627 9.7715Z" fill="white"/>
</mask>
<g mask="url(#mask0)">
<rect width="9" height="22" transform="matrix(-1 0 0 1 84 -2)" fill="white"/>
</g>
<path fill-rule="evenodd" clip-rule="evenodd" d="M61.9627 9.7715L60.0168 16L65.0155 12.0226L70.255 15.7485L70.2374 15.6957L70.1328 15.3814L70.4577 15.6044L68.3384 9.7044L73.0762 6.55687L67.1734 6.48605L65.0155 0L63.0047 6.43603L57 6.36398L61.9627 9.7715Z" fill="white"/>
<path fill-rule="evenodd" clip-rule="evenodd" d="M42.9627 9.7715L41.0168 16L46.0155 12.0226L51.255 15.7485L51.2374 15.6957L51.1328 15.3814L51.4577 15.6044L49.3384 9.7044L54.0762 6.55687L48.1734 6.48605L46.0155 0L44.0047 6.43603L38 6.36398L42.9627 9.7715Z" fill="white"/>
<path fill-rule="evenodd" clip-rule="evenodd" d="M23.9627 9.7715L22.0168 16L27.0155 12.0226L32.255 15.7485L32.2374 15.6957L32.1328 15.3814L32.4577 15.6044L30.3384 9.7044L35.0762 6.55687L29.1734 6.48605L27.0155 0L25.0047 6.43603L19 6.36398L23.9627 9.7715Z" fill="white"/>
<path fill-rule="evenodd" clip-rule="evenodd" d="M4.96268 9.7715L3.01677 16L8.0155 12.0226L13.255 15.7485L13.2374 15.6957L13.1328 15.3814L13.4577 15.6044L11.3384 9.7044L16.0762 6.55687L10.1734 6.48605L8.0155 0L6.00475 6.43603L0 6.36398L4.96268 9.7715Z" fill="white"/>
</svg>
