<svg width="279" height="31" viewBox="0 0 279 31" fill="none" xmlns="http://www.w3.org/2000/svg">
<path fill-rule="evenodd" clip-rule="evenodd" d="M275.287 21.0358C275.392 19.0926 276.871 17.6673 278.909 17.5454C279.205 19.3536 277.315 21.1749 275.287 21.0358Z" fill="white"/>
<path fill-rule="evenodd" clip-rule="evenodd" d="M273.857 20.8646C271.986 20.7038 270.637 18.9319 270.854 16.9174C272.656 16.8757 274.182 18.8805 273.857 20.8646Z" fill="white"/>
<path fill-rule="evenodd" clip-rule="evenodd" d="M274.859 10.9942C272.991 11.8911 270.807 11.0905 270.053 9.30004C271.911 8.55314 273.854 9.21762 274.859 10.9942Z" fill="white"/>
<path fill-rule="evenodd" clip-rule="evenodd" d="M265.969 26.9769C264.592 25.5706 264.69 23.6112 266.216 22.0264C267.621 23.2771 267.497 25.7653 265.969 26.9769Z" fill="white"/>
<path fill-rule="evenodd" clip-rule="evenodd" d="M276.1 10.3161C275.043 8.63947 275.487 6.54344 277.081 5.43848C278.274 6.98591 277.863 9.15728 276.1 10.3161Z" fill="white"/>
<path fill-rule="evenodd" clip-rule="evenodd" d="M272.164 27.5293C270.663 29.1519 268.482 29.3191 267.036 27.974C268.289 26.5358 270.344 26.3382 272.164 27.5293Z" fill="white"/>
<path fill-rule="evenodd" clip-rule="evenodd" d="M267.563 5.79127C269.379 4.81438 271.342 5.20079 272.573 6.77814C271.108 8.01692 268.72 7.54631 267.563 5.79127Z" fill="white"/>
<path fill-rule="evenodd" clip-rule="evenodd" d="M270.057 24.2712C268.326 23.063 267.934 21.0121 269.055 19.3457C270.703 20.438 271.148 22.5192 270.057 24.2712Z" fill="white"/>
<path fill-rule="evenodd" clip-rule="evenodd" d="M276.089 23.2358C275.395 25.0006 273.24 25.7974 271.376 24.9785C271.97 23.2766 274.11 22.4852 276.089 23.2358Z" fill="white"/>
<path fill-rule="evenodd" clip-rule="evenodd" d="M270.547 3.36113C268.686 3.64518 267.03 2.09508 266.979 0.0192113C268.762 -0.198147 270.534 1.46118 270.547 3.36113Z" fill="white"/>
<path fill-rule="evenodd" clip-rule="evenodd" d="M270.821 12.8745C272.886 12.7613 274.422 13.9662 274.797 15.9129C273.041 16.4442 271.303 15.1374 270.821 12.8745Z" fill="white"/>
<path fill-rule="evenodd" clip-rule="evenodd" d="M274.088 0.991455C275.396 2.73542 275.212 4.84874 273.706 5.99159C272.453 4.51306 272.599 2.30757 274.088 0.991455Z" fill="white"/>
<mask id="mask0" mask-type="alpha" maskUnits="userSpaceOnUse" x="276" y="11" width="3" height="5">
<path fill-rule="evenodd" clip-rule="evenodd" d="M276.127 11.5598H279V15.796H276.127V11.5598Z" fill="white"/>
</mask>
<g mask="url(#mask0)">
<path fill-rule="evenodd" clip-rule="evenodd" d="M278.951 11.5598C279.258 13.7638 278.094 15.5345 276.231 15.796C275.766 13.9643 276.902 12.1521 278.951 11.5598Z" fill="white"/>
</g>
<path fill-rule="evenodd" clip-rule="evenodd" d="M3.71338 21.0358C3.60769 19.0926 2.1285 17.6673 0.0909586 17.5454C-0.205278 19.3536 1.68492 21.1749 3.71338 21.0358Z" fill="white"/>
<path fill-rule="evenodd" clip-rule="evenodd" d="M5.14306 20.8646C7.01442 20.7038 8.36267 18.9319 8.14641 16.9174C6.34351 16.8757 4.81846 18.8805 5.14306 20.8646Z" fill="white"/>
<path fill-rule="evenodd" clip-rule="evenodd" d="M4.14094 10.9942C6.00854 11.8911 8.19254 11.0905 8.94653 9.30004C7.0889 8.55314 5.14619 9.21762 4.14094 10.9942Z" fill="white"/>
<path fill-rule="evenodd" clip-rule="evenodd" d="M13.0309 26.9769C14.4079 25.5706 14.3102 23.6112 12.7842 22.0264C11.3788 23.2771 11.5027 25.7653 13.0309 26.9769Z" fill="white"/>
<path fill-rule="evenodd" clip-rule="evenodd" d="M2.89953 10.3161C3.95686 8.63947 3.51283 6.54344 1.91865 5.43848C0.725505 6.98591 1.13696 9.15728 2.89953 10.3161Z" fill="white"/>
<path fill-rule="evenodd" clip-rule="evenodd" d="M6.83589 27.5293C8.33657 29.1519 10.5179 29.3191 11.9639 27.974C10.7107 26.5358 8.65607 26.3382 6.83589 27.5293Z" fill="white"/>
<path fill-rule="evenodd" clip-rule="evenodd" d="M11.437 5.79127C9.62082 4.81438 7.65839 5.20079 6.42713 6.77814C7.89192 8.01692 10.2802 7.54631 11.437 5.79127Z" fill="white"/>
<path fill-rule="evenodd" clip-rule="evenodd" d="M8.94342 24.2712C10.6739 23.063 11.0656 21.0121 9.94513 19.3457C8.2971 20.438 7.85175 22.5192 8.94342 24.2712Z" fill="white"/>
<path fill-rule="evenodd" clip-rule="evenodd" d="M2.91107 23.2358C3.60546 25.0006 5.75999 25.7974 7.62427 24.9785C7.03002 23.2766 4.88989 22.4852 2.91107 23.2358Z" fill="white"/>
<path fill-rule="evenodd" clip-rule="evenodd" d="M8.45291 3.36113C10.3143 3.64518 11.9699 2.09508 12.0215 0.0192113C10.2376 -0.198147 8.46576 1.46118 8.45291 3.36113Z" fill="white"/>
<path fill-rule="evenodd" clip-rule="evenodd" d="M8.17871 12.8745C6.11436 12.7613 4.57823 13.9662 4.20333 15.9129C5.95926 16.4442 7.69724 15.1374 8.17871 12.8745Z" fill="white"/>
<path fill-rule="evenodd" clip-rule="evenodd" d="M4.91247 0.991455C3.60367 2.73542 3.78823 4.84874 5.29445 5.99159C6.5472 4.51306 6.40141 2.30757 4.91247 0.991455Z" fill="white"/>
<mask id="mask1" mask-type="alpha" maskUnits="userSpaceOnUse" x="0" y="11" width="3" height="5">
<path fill-rule="evenodd" clip-rule="evenodd" d="M2.87256 11.5598H1.33514e-05V15.796H2.87256V11.5598Z" fill="white"/>
</mask>
<g mask="url(#mask1)">
<path fill-rule="evenodd" clip-rule="evenodd" d="M0.0487804 11.5598C-0.257649 13.7638 0.906471 15.5345 2.7692 15.796C3.23383 13.9643 2.09784 12.1521 0.0487804 11.5598Z" fill="white"/>
</g>
<path d="M29.8228 19V10.0645H33.082V8.43115H24.6812V10.0645H27.9331V19H29.8228ZM38.1053 19.1611C40.5003 19.1611 41.9578 17.5938 41.9578 14.9937C41.9578 12.4009 40.493 10.8262 38.1053 10.8262C35.7249 10.8262 34.2527 12.4082 34.2527 14.9937C34.2527 17.5938 35.7029 19.1611 38.1053 19.1611ZM38.1053 17.6377C36.8382 17.6377 36.1131 16.6709 36.1131 14.9937C36.1131 13.3237 36.8382 12.3496 38.1053 12.3496C39.365 12.3496 40.0901 13.3237 40.0901 14.9937C40.0901 16.6709 39.3724 17.6377 38.1053 17.6377ZM49.3541 10.8555C48.2555 10.8555 47.3253 11.4048 46.8639 12.313H46.7394V10.9873H44.9889V21.666H46.8053V17.7842H46.9298C47.3399 18.6338 48.2262 19.1318 49.3761 19.1318C51.3976 19.1318 52.6573 17.5498 52.6573 14.9937C52.6573 12.4229 51.3829 10.8555 49.3541 10.8555ZM48.7828 17.5864C47.545 17.5864 46.776 16.5977 46.7687 14.9937C46.776 13.397 47.5523 12.4009 48.7901 12.4009C50.0353 12.4009 50.7896 13.375 50.7896 14.9937C50.7896 16.6123 50.0426 17.5864 48.7828 17.5864ZM64.7106 19.2637C67.0178 19.2637 68.5632 17.7476 68.5632 15.5283C68.5632 13.4043 67.0983 12.0493 65.2893 12.0493C64.2126 12.0493 63.4362 12.4229 62.9675 13.0747H62.843L63.1359 10.0205H67.9992V8.43115H61.6638L61.0852 14.5835H62.799C63.1579 13.9023 63.8537 13.4849 64.7546 13.4849C65.9191 13.4849 66.7395 14.3198 66.7395 15.5649C66.7395 16.8394 65.9191 17.689 64.7033 17.689C63.6267 17.689 62.8137 17.0518 62.6965 16.0703H60.9313C61.0119 17.9307 62.528 19.2637 64.7106 19.2637ZM77.013 19H78.8221V10.9873H77.013V19ZM77.9139 9.66162C78.5145 9.66162 78.9979 9.17822 78.9979 8.57031C78.9979 7.9624 78.5145 7.47168 77.9139 7.47168C77.3206 7.47168 76.8299 7.9624 76.8299 8.57031C76.8299 9.17822 77.3206 9.66162 77.9139 9.66162ZM82.2779 19H84.0943V14.3345C84.0943 13.1553 84.7755 12.4082 85.8595 12.4082C86.9654 12.4082 87.4781 13.0234 87.4781 14.2466V19H89.2945V13.8145C89.2945 11.9028 88.3204 10.8262 86.5333 10.8262C85.3395 10.8262 84.5338 11.3755 84.1529 12.269H84.0284V10.9873H82.2779V19ZM106.951 19V8.43115H105.069V12.8037H99.927V8.43115H98.0373V19H99.927V14.437H105.069V19H106.951ZM113.937 12.269C115.028 12.269 115.746 13.0308 115.783 14.2173H112.011C112.091 13.0454 112.853 12.269 113.937 12.269ZM115.797 16.7954C115.534 17.3887 114.911 17.7183 114.01 17.7183C112.816 17.7183 112.047 16.8833 112.003 15.5503V15.4551H117.599V14.8691C117.599 12.3423 116.229 10.8262 113.944 10.8262C111.623 10.8262 110.18 12.4448 110.18 15.0229C110.18 17.6011 111.601 19.1611 113.959 19.1611C115.849 19.1611 117.189 18.2529 117.519 16.7954H115.797ZM123.362 17.7036C122.556 17.7036 121.978 17.3008 121.978 16.627C121.978 15.9751 122.454 15.6089 123.472 15.543L125.281 15.4258V16.063C125.281 16.9932 124.461 17.7036 123.362 17.7036ZM122.827 19.1318C123.875 19.1318 124.754 18.6777 125.2 17.9014H125.325V19H127.075V13.5288C127.075 11.8296 125.918 10.8262 123.86 10.8262C121.956 10.8262 120.63 11.7271 120.484 13.1406H122.198C122.366 12.5986 122.937 12.3057 123.772 12.3057C124.754 12.3057 125.281 12.7451 125.281 13.5288V14.2026L123.216 14.3271C121.267 14.4443 120.176 15.2793 120.176 16.7295C120.176 18.1943 121.282 19.1318 122.827 19.1318ZM130.539 19H132.355V7.88916H130.539V19ZM136.433 9.02441V11.0386H135.166V12.4888H136.433V16.8613C136.433 18.4141 137.166 19.0366 139.004 19.0366C139.356 19.0366 139.693 19 139.956 18.9487V17.5278C139.737 17.5498 139.598 17.5645 139.341 17.5645C138.579 17.5645 138.243 17.2129 138.243 16.4219V12.4888H139.956V11.0386H138.243V9.02441H136.433ZM143.046 19H144.863V14.3491C144.863 13.1992 145.529 12.4229 146.723 12.4229C147.778 12.4229 148.334 13.0454 148.334 14.2612V19H150.151V13.8291C150.151 11.9248 149.111 10.8408 147.397 10.8408C146.203 10.8408 145.346 11.3828 144.965 12.2837H144.833V7.88916H143.046V19ZM161.442 17.7036C160.637 17.7036 160.058 17.3008 160.058 16.627C160.058 15.9751 160.534 15.6089 161.552 15.543L163.361 15.4258V16.063C163.361 16.9932 162.541 17.7036 161.442 17.7036ZM160.908 19.1318C161.955 19.1318 162.834 18.6777 163.281 17.9014H163.405V19H165.156V13.5288C165.156 11.8296 163.998 10.8262 161.94 10.8262C160.036 10.8262 158.71 11.7271 158.564 13.1406H160.278C160.446 12.5986 161.017 12.3057 161.852 12.3057C162.834 12.3057 163.361 12.7451 163.361 13.5288V14.2026L161.296 14.3271C159.347 14.4443 158.256 15.2793 158.256 16.7295C158.256 18.1943 159.362 19.1318 160.908 19.1318ZM168.546 19H170.362V14.3345C170.362 13.1553 171.043 12.4082 172.127 12.4082C173.233 12.4082 173.746 13.0234 173.746 14.2466V19H175.562V13.8145C175.562 11.9028 174.588 10.8262 172.801 10.8262C171.607 10.8262 170.801 11.3755 170.421 12.269H170.296V10.9873H168.546V19ZM181.816 19.1318C182.929 19.1318 183.852 18.6118 184.306 17.7329H184.431V19H186.188V7.88916H184.372V12.2617H184.247C183.823 11.3828 182.914 10.8555 181.816 10.8555C179.794 10.8555 178.52 12.4521 178.52 14.9863C178.52 17.5352 179.787 19.1318 181.816 19.1318ZM182.38 12.4009C183.625 12.4009 184.394 13.397 184.394 14.9937C184.394 16.605 183.632 17.5864 182.38 17.5864C181.135 17.5864 180.38 16.6123 180.38 14.9937C180.38 13.3823 181.142 12.4009 182.38 12.4009ZM196.96 19V14.7153H201.391V13.1406H196.96V10.0645H201.809V8.43115H195.07V19H196.96ZM204.935 19H206.744V10.9873H204.935V19ZM205.836 9.66162C206.436 9.66162 206.92 9.17822 206.92 8.57031C206.92 7.9624 206.436 7.47168 205.836 7.47168C205.242 7.47168 204.752 7.9624 204.752 8.57031C204.752 9.17822 205.242 9.66162 205.836 9.66162ZM210.778 9.02441V11.0386H209.511V12.4888H210.778V16.8613C210.778 18.4141 211.511 19.0366 213.349 19.0366C213.701 19.0366 214.038 19 214.301 18.9487V17.5278C214.082 17.5498 213.942 17.5645 213.686 17.5645C212.924 17.5645 212.587 17.2129 212.587 16.4219V12.4888H214.301V11.0386H212.587V9.02441H210.778ZM217.318 19H219.134V14.3345C219.134 13.1553 219.815 12.4082 220.899 12.4082C222.005 12.4082 222.518 13.0234 222.518 14.2466V19H224.334V13.8145C224.334 11.9028 223.36 10.8262 221.573 10.8262C220.379 10.8262 219.574 11.3755 219.193 12.269H219.068V10.9873H217.318V19ZM231.05 12.269C232.141 12.269 232.859 13.0308 232.895 14.2173H229.123C229.204 13.0454 229.966 12.269 231.05 12.269ZM232.91 16.7954C232.646 17.3887 232.024 17.7183 231.123 17.7183C229.929 17.7183 229.16 16.8833 229.116 15.5503V15.4551H234.712V14.8691C234.712 12.3423 233.342 10.8262 231.057 10.8262C228.735 10.8262 227.292 12.4448 227.292 15.0229C227.292 17.6011 228.713 19.1611 231.071 19.1611C232.961 19.1611 234.301 18.2529 234.631 16.7954H232.91ZM237.552 13.2798C237.552 14.4883 238.277 15.1987 239.815 15.5503L241.236 15.8799C241.998 16.0483 242.342 16.334 242.342 16.7881C242.342 17.3813 241.705 17.7842 240.79 17.7842C239.881 17.7842 239.317 17.4326 239.142 16.8394H237.347C237.486 18.2969 238.746 19.1611 240.746 19.1611C242.745 19.1611 244.159 18.1357 244.159 16.5977C244.159 15.4185 243.448 14.7593 241.917 14.415L240.504 14.0928C239.698 13.9097 239.317 13.6313 239.317 13.1772C239.317 12.5986 239.94 12.2031 240.768 12.2031C241.617 12.2031 242.152 12.562 242.284 13.126H243.99C243.858 11.6685 242.665 10.8262 240.76 10.8262C238.871 10.8262 237.552 11.8296 237.552 13.2798ZM246.867 13.2798C246.867 14.4883 247.593 15.1987 249.131 15.5503L250.552 15.8799C251.313 16.0483 251.658 16.334 251.658 16.7881C251.658 17.3813 251.02 17.7842 250.105 17.7842C249.197 17.7842 248.633 17.4326 248.457 16.8394H246.662C246.802 18.2969 248.061 19.1611 250.061 19.1611C252.06 19.1611 253.474 18.1357 253.474 16.5977C253.474 15.4185 252.763 14.7593 251.233 14.415L249.819 14.0928C249.013 13.9097 248.633 13.6313 248.633 13.1772C248.633 12.5986 249.255 12.2031 250.083 12.2031C250.932 12.2031 251.467 12.562 251.599 13.126H253.305C253.174 11.6685 251.98 10.8262 250.075 10.8262C248.186 10.8262 246.867 11.8296 246.867 13.2798Z" fill="white"/>
</svg>
